<svg xmlns="http://www.w3.org/2000/svg" width="105.961" height="74.177" viewBox="0 0 105.961 74.177"><defs><style>.a{fill:#fff}</style></defs><path d="M95.386,59.254V47.9A15.9,15.9,0,0,0,79.491,32H26.507a15.9,15.9,0,0,0-15.9,15.9V59.254A14.684,14.684,0,0,0,.065,71.9,14.4,14.4,0,0,0,5.314,84.255v15.3a6.621,6.621,0,0,0,6.623,6.623H26.507c.662,0,5-.149,5.282-5.3h42.42a5.144,5.144,0,0,0,5.282,5.3H94.062a6.621,6.621,0,0,0,6.623-6.623v-15.3A14.425,14.425,0,0,0,105.933,71.9,14.684,14.684,0,0,0,95.386,59.254ZM23.858,98.23h-10.6V79.9l-1.97-1.159A6.565,6.565,0,0,1,8,72.516c.248-3.345,3.51-6.077,7.252-6.077h1.987a6.621,6.621,0,0,1,6.623,6.623ZM74.193,77.036v15.9H31.806v-15.9Zm.613-7.948H31.177A14.515,14.515,0,0,0,18.56,58.624V47.9a7.95,7.95,0,0,1,7.948-7.948H79.491A7.95,7.95,0,0,1,87.439,47.9V58.624A14.517,14.517,0,0,0,74.805,69.089Zm19.9,9.67-1.97,1.159V98.23H82.14V73.062a6.621,6.621,0,0,1,6.623-6.623H90.75c3.742,0,7,2.732,7.269,6.093A6.625,6.625,0,0,1,94.707,78.758Z" class="a" transform="translate(-0.019 -32)"/></svg>