<svg xmlns="http://www.w3.org/2000/svg" width="104.431" height="92.837" viewBox="0 0 104.431 92.837"><defs><style>.a{fill:#fff;}</style></defs><path class="a" d="M100.072,56.573c-5.639-4.787-12.566-2.919-16.029-.326L73.091,64.5h-.6A12.326,12.326,0,0,0,59.945,52.2H33.835A23.633,23.633,0,0,0,19.6,56.972L14.47,60.924H2.9a2.91,2.91,0,0,0-2.9,2.9v2.9a2.91,2.91,0,0,0,2.9,2.9H17.407L24.9,63.916a14.749,14.749,0,0,1,8.957-2.992h26.11c5.059,0,5.276,7.289-.2,7.289H48.921a2.507,2.507,0,0,0-2.5,2.5v.018a2.507,2.507,0,0,0,2.5,2.5H73.309A8.136,8.136,0,0,0,78.186,71.6L89.3,63.245a4.217,4.217,0,0,1,5.15,0,3.5,3.5,0,0,1-.163,5.567L76.047,82.5a8.176,8.176,0,0,1-4.878,1.632H2.9a2.91,2.91,0,0,0-2.9,2.9v2.9a2.91,2.91,0,0,0,2.9,2.9H71.224a16.625,16.625,0,0,0,10.009-3.354L99.51,75.72a12.214,12.214,0,0,0,.562-19.148ZM46.709,26.165l9.084,2.593a1.525,1.525,0,0,1-.417,2.992H49.429a4.665,4.665,0,0,1-1.868-.4A2.248,2.248,0,0,0,45,31.713l-3.173,3.173a2.175,2.175,0,0,0,.272,3.336,13.333,13.333,0,0,0,5.766,2.085v3.209a2.91,2.91,0,0,0,2.9,2.9h2.9a2.91,2.91,0,0,0,2.9-2.9V40.326A10.189,10.189,0,0,0,65.512,28.9a10.639,10.639,0,0,0-7.779-8.649l-9.084-2.593a1.525,1.525,0,0,1,.417-2.992h5.947a4.665,4.665,0,0,1,1.868.4,2.248,2.248,0,0,0,2.557-.363l3.173-3.173A2.175,2.175,0,0,0,62.339,8.2a13.333,13.333,0,0,0-5.766-2.085V2.9a2.91,2.91,0,0,0-2.9-2.9h-2.9a2.91,2.91,0,0,0-2.9,2.9V6.092A10.189,10.189,0,0,0,38.93,17.516,10.613,10.613,0,0,0,46.709,26.165Z"/></svg>