<svg xmlns="http://www.w3.org/2000/svg" width="128.334" height="45.995" viewBox="0 0 128.334 45.995"><defs><style>.a{fill:#896d4e;}.b{fill:#0e0701;}</style></defs><g transform="translate(0)"><path class="a" d="M45.645,27.674,27.672,45.647a2.887,2.887,0,0,0-.842,2.037V72.812h9.313V63.888l3.663-3.659V72.8h2.805V60.244L46.274,63.9v8.924h2.817V56.259L52.75,52.6V72.812h2.817V52.6l3.663,3.659V72.812h9.313V47.684a2.886,2.886,0,0,0-.842-2.037L49.716,27.674A2.883,2.883,0,0,0,45.645,27.674Zm.629,32.237-3.663-3.663V43.87l3.663-3.663ZM52.75,48.627l-3.659,3.651V40.207L52.75,43.87Zm9.313,21.384V56.286a2.879,2.879,0,0,0-.842-2.037l-5.653-5.622V43.893a2.879,2.879,0,0,0-.842-2.033L49.719,36.85a2.887,2.887,0,0,0-4.074,0L40.64,41.86a2.879,2.879,0,0,0-.842,2.033V56.259l-5.634,5.634a2.883,2.883,0,0,0-.846,2.037V70H29.659V47.657L47.682,29.633,65.7,47.657V70Z" transform="translate(-26.83 -26.833)"/><path class="b" d="M6.732.238a5.725,5.725,0,0,1-4.377-1.6A6.369,6.369,0,0,1,.85-5.9a6.98,6.98,0,0,1,.459-2.609,5.623,5.623,0,0,1,1.258-1.938,5.26,5.26,0,0,1,1.9-1.2,6.868,6.868,0,0,1,2.4-.408,7.683,7.683,0,0,1,1.36.11,8.818,8.818,0,0,1,1.071.255,5.285,5.285,0,0,1,.765.3q.306.153.442.238L9.741-9.01A6.417,6.417,0,0,0,8.474-9.5a6.044,6.044,0,0,0-1.64-.2,3.624,3.624,0,0,0-1.2.2A2.71,2.71,0,0,0,4.6-8.849a3.261,3.261,0,0,0-.723,1.165A4.886,4.886,0,0,0,3.6-5.95a6.189,6.189,0,0,0,.179,1.521,3.227,3.227,0,0,0,.578,1.216,2.775,2.775,0,0,0,1.045.807,3.721,3.721,0,0,0,1.564.3,7.127,7.127,0,0,0,1.037-.068,7.7,7.7,0,0,0,.816-.161,4.285,4.285,0,0,0,.629-.213q.272-.119.493-.221l.731,2.125A6.213,6.213,0,0,1,9.1-.034,9.215,9.215,0,0,1,6.732.238Zm12.75-12.019h2.652V0H19.482V-5H15.028V0H12.376V-11.781h2.652v4.505h4.454ZM29.461.238a5.934,5.934,0,0,1-2.142-.349,3.99,3.99,0,0,1-1.488-.969,3.871,3.871,0,0,1-.867-1.479,6.077,6.077,0,0,1-.281-1.9v-7.327h2.652v7.106A4,4,0,0,0,27.5-3.46a2.24,2.24,0,0,0,.442.816,1.578,1.578,0,0,0,.68.451,2.7,2.7,0,0,0,.875.136,2.144,2.144,0,0,0,1.573-.6,2.776,2.776,0,0,0,.6-2.023v-7.106h2.652v7.327a5.991,5.991,0,0,1-.289,1.9,3.9,3.9,0,0,1-.884,1.488A3.964,3.964,0,0,1,31.637-.1,6.267,6.267,0,0,1,29.461.238ZM40-11.781q.306.561.706,1.385t.833,1.785q.433.961.859,1.964l.8,1.887L44-6.647q.425-1,.858-1.964t.833-1.785q.4-.824.706-1.385h2.414q.17,1.173.314,2.627t.255,3.026q.11,1.572.2,3.154T49.742,0H47.158q-.051-1.717-.136-3.74t-.255-4.08q-.306.714-.68,1.581T45.347-4.5q-.365.867-.706,1.657T44.064-1.5H42.211q-.238-.561-.578-1.352T40.928-4.5q-.366-.867-.74-1.734t-.68-1.581q-.17,2.057-.255,4.08T39.117,0H36.533q.068-1.394.161-2.975t.2-3.154q.11-1.573.255-3.026t.315-2.627ZM52.122,0V-11.781h7.956v2.227h-5.3v2.312h4.709v2.176H54.774v2.839h5.695V0Zm14.79-6.936q.714-1.207,1.36-2.414t1.19-2.431h2.924q-.969,1.9-2.006,3.689T68.187-4.5V0H65.535V-4.471q-1.156-1.8-2.2-3.6t-2.014-3.706H64.4q.544,1.224,1.173,2.431T66.912-6.936ZM3.51,5.9a5.014,5.014,0,0,1,2.918.721A2.463,2.463,0,0,1,7.449,8.773a2.924,2.924,0,0,1-.28,1.332,2.293,2.293,0,0,1-.806.9,3.68,3.68,0,0,1-1.28.5,8.444,8.444,0,0,1-1.7.156h-1V15H1.118V6.121a7.111,7.111,0,0,1,1.189-.175Q2.964,5.9,3.51,5.9Zm.1,1.1q-.806,0-1.235.039V10.58h.949A7.339,7.339,0,0,0,4.5,10.5a2.645,2.645,0,0,0,.878-.286,1.411,1.411,0,0,0,.552-.553,1.834,1.834,0,0,0,.195-.9,1.654,1.654,0,0,0-.2-.858,1.515,1.515,0,0,0-.546-.539,2.359,2.359,0,0,0-.8-.28A5.691,5.691,0,0,0,3.614,7.005Zm9.815,4.225q.208.26.526.683t.656.936q.338.513.67,1.072A10.868,10.868,0,0,1,15.847,15H14.469q-.26-.494-.566-1t-.618-.968q-.312-.462-.618-.865t-.552-.7q-.169.013-.344.013H10.283V15H9.022V6.121a7.111,7.111,0,0,1,1.19-.175q.657-.045,1.2-.045a4.922,4.922,0,0,1,2.892.715A2.455,2.455,0,0,1,15.3,8.747a2.5,2.5,0,0,1-.475,1.534A2.8,2.8,0,0,1,13.429,11.23ZM11.518,7.005q-.806,0-1.235.039v3.393h.9a9.5,9.5,0,0,0,1.17-.065,2.66,2.66,0,0,0,.877-.247,1.32,1.32,0,0,0,.552-.514,1.721,1.721,0,0,0,.2-.877,1.67,1.67,0,0,0-.2-.845,1.445,1.445,0,0,0-.526-.533,2.3,2.3,0,0,0-.78-.273A5.576,5.576,0,0,0,11.518,7.005Zm5.174,3.484a5.6,5.6,0,0,1,.344-2.041,4.221,4.221,0,0,1,.936-1.476,3.873,3.873,0,0,1,1.378-.891,4.661,4.661,0,0,1,1.67-.3,4.521,4.521,0,0,1,1.645.3,3.835,3.835,0,0,1,1.358.891,4.271,4.271,0,0,1,.93,1.476,5.6,5.6,0,0,1,.345,2.041,5.6,5.6,0,0,1-.345,2.041,4.271,4.271,0,0,1-.93,1.476,3.835,3.835,0,0,1-1.358.891,4.521,4.521,0,0,1-1.645.3,4.661,4.661,0,0,1-1.67-.3,3.873,3.873,0,0,1-1.378-.891,4.221,4.221,0,0,1-.936-1.476A5.6,5.6,0,0,1,16.692,10.489Zm1.326,0a5,5,0,0,0,.208,1.488,3.331,3.331,0,0,0,.591,1.137,2.592,2.592,0,0,0,.936.722,2.943,2.943,0,0,0,1.241.253,2.9,2.9,0,0,0,1.235-.253,2.606,2.606,0,0,0,.93-.722,3.331,3.331,0,0,0,.591-1.137,5,5,0,0,0,.208-1.488A5,5,0,0,0,23.751,9a3.331,3.331,0,0,0-.591-1.137,2.606,2.606,0,0,0-.93-.721,2.9,2.9,0,0,0-1.235-.254,2.943,2.943,0,0,0-1.241.254,2.592,2.592,0,0,0-.936.721A3.331,3.331,0,0,0,18.226,9,5,5,0,0,0,18.018,10.489ZM29.562,5.9a5.014,5.014,0,0,1,2.918.721A2.463,2.463,0,0,1,33.5,8.773a2.924,2.924,0,0,1-.279,1.332,2.293,2.293,0,0,1-.806.9,3.68,3.68,0,0,1-1.281.5,8.444,8.444,0,0,1-1.7.156h-1V15H27.17V6.121a7.111,7.111,0,0,1,1.19-.175Q29.016,5.9,29.562,5.9Zm.1,1.1q-.806,0-1.235.039V10.58h.949a7.339,7.339,0,0,0,1.17-.084,2.645,2.645,0,0,0,.878-.286,1.411,1.411,0,0,0,.552-.553,1.834,1.834,0,0,0,.195-.9,1.654,1.654,0,0,0-.2-.858,1.515,1.515,0,0,0-.546-.539,2.359,2.359,0,0,0-.8-.28A5.691,5.691,0,0,0,29.666,7.005ZM35.074,15V5.991h5.5V7.07H36.335V9.748H40.1V10.8h-3.77v3.12H40.9V15ZM46.9,11.23q.208.26.526.683t.657.936q.338.513.669,1.072A10.868,10.868,0,0,1,49.322,15H47.944q-.26-.494-.565-1t-.618-.968q-.312-.462-.618-.865t-.552-.7q-.169.013-.345.013H43.758V15H42.5V6.121a7.111,7.111,0,0,1,1.189-.175q.657-.045,1.2-.045a4.922,4.922,0,0,1,2.893.715,2.455,2.455,0,0,1,.994,2.132,2.5,2.5,0,0,1-.474,1.534A2.8,2.8,0,0,1,46.9,11.23ZM44.993,7.005q-.806,0-1.235.039v3.393h.9a9.5,9.5,0,0,0,1.17-.065,2.66,2.66,0,0,0,.878-.247,1.32,1.32,0,0,0,.552-.514,1.721,1.721,0,0,0,.195-.877,1.67,1.67,0,0,0-.195-.845,1.445,1.445,0,0,0-.527-.533,2.3,2.3,0,0,0-.78-.273A5.576,5.576,0,0,0,44.993,7.005Zm11.7-1.014V7.083H53.859V15H52.6V7.083H49.764V5.991Zm1.326,0H59.28V15H58.019ZM61.516,15V5.991h5.5V7.07H62.777V9.748h3.77V10.8h-3.77v3.12H67.34V15Zm9.516-.9q1.976,0,1.976-1.352a1.353,1.353,0,0,0-.175-.709,1.7,1.7,0,0,0-.474-.507,3.3,3.3,0,0,0-.683-.37q-.384-.156-.812-.312a8.281,8.281,0,0,1-.936-.384,3.275,3.275,0,0,1-.767-.507,2.152,2.152,0,0,1-.513-.7,2.288,2.288,0,0,1-.188-.975,2.258,2.258,0,0,1,.806-1.846,3.4,3.4,0,0,1,2.223-.663,5.87,5.87,0,0,1,1.489.175,3.4,3.4,0,0,1,.981.384l-.4,1.027a3.553,3.553,0,0,0-.812-.332,4.363,4.363,0,0,0-1.255-.162,2.782,2.782,0,0,0-.676.078,1.733,1.733,0,0,0-.546.234,1.158,1.158,0,0,0-.37.4,1.127,1.127,0,0,0-.137.566,1.2,1.2,0,0,0,.143.611,1.416,1.416,0,0,0,.4.435,3.457,3.457,0,0,0,.6.345q.345.156.76.312.585.234,1.073.468a3.493,3.493,0,0,1,.845.559,2.24,2.24,0,0,1,.552.774,2.716,2.716,0,0,1,.195,1.085,2.125,2.125,0,0,1-.865,1.82,4.048,4.048,0,0,1-2.437.637,6.252,6.252,0,0,1-.981-.071,7.305,7.305,0,0,1-.8-.169,4.626,4.626,0,0,1-.6-.208q-.253-.11-.4-.189l.377-1.04a5.691,5.691,0,0,0,.91.377A4.676,4.676,0,0,0,71.032,14.1Z" transform="translate(54 22.813)"/></g></svg>