<svg xmlns="http://www.w3.org/2000/svg" width="85.906" height="91.624" viewBox="0 0 85.906 91.624"><defs><style>.a{fill:#fff}</style></defs><path d="M42.345,41.273a2.166,2.166,0,0,0-3.043-.018l-4.063,4.027a2.166,2.166,0,0,0-.018,3.043L51.472,64.7a2.166,2.166,0,0,0,3.043.018l30.89-30.64a2.166,2.166,0,0,0,.018-3.043L81.4,26.974a2.166,2.166,0,0,0-3.043-.018L53.047,52.047ZM96.627,15,62.264.683a8.617,8.617,0,0,0-6.6,0L21.3,15A8.581,8.581,0,0,0,16,22.929c0,35.526,20.492,60.081,39.642,68.063a8.618,8.618,0,0,0,6.6,0c15.338-6.389,39.66-28.456,39.66-68.063A8.593,8.593,0,0,0,96.627,15ZM58.953,83.063C41.5,75.8,24.591,53.229,24.591,22.929L58.953,8.611,93.316,22.929C93.316,54.034,75.7,76.083,58.953,83.063Z" class="a" transform="translate(-16 -0.025)"/></svg>